# xmcd
#
# Track frame offsets:
#   150
#   21364
#   44420
#   72251
#   92034
#   110619
#   132714
#   151364
#   172979
#   198656
#   223461
#   243326
#   261074
#   279566
#   302386
#   320339
#   337306
#
# Disc length: 4721 seconds
#
# Revision: 7
# Processed by: cddbd v1.5.2PL0 Copyright (c) Steve Scherf et al.
# Submitted via: Media_Universe 3.0
#
DISCID=08126f11
DTITLE=B-T O - Bachman-Turner Overdrive -Gold [CD1]
DYEAR=2005
DGENRE=Hard Rock
TTITLE0=Bachman-Turner Overdrive -Gimme Your Money Please
TTITLE1=Bachman-Turner Overdrive -Hold Back The Water
TTITLE2=Bachman-Turner Overdrive -Blue Collar
TTITLE3=Bachman-Turner Overdrive -Little Gandy Dancer
TTITLE4=Bachman-Turner Overdrive -Stayed Awake All Night
TTITLE5=Bachman-Turner Overdrive -Don't Get Yourself In Trouble
TTITLE6=Bachman-Turner Overdrive -Thank You For The Feelin'
TTITLE7=Bachman-Turner Overdrive -Taking Care Of Business
TTITLE8=Bachman-Turner Overdrive -Give It Time
TTITLE9=Bachman-Turner Overdrive -Welcome Home
TTITLE10=Bachman-Turner Overdrive -Let It Ride
TTITLE11=Bachman-Turner Overdrive -You Ain't Seen Nothing Yet
TTITLE12=Bachman-Turner Overdrive -Not Fragile
TTITLE13=Bachman-Turner Overdrive -Rock Is My Life, And This Is My Song
TTITLE14=Bachman-Turner Overdrive -Roll On Down The Highway
TTITLE15=Bachman-Turner Overdrive -Free Wheelin'
TTITLE16=Bachman-Turner Overdrive -Blue Moanin'
EXTD=YEAR: 2005
EXTT0=
EXTT1=
EXTT2=
EXTT3=
EXTT4=
EXTT5=
EXTT6=
EXTT7=
EXTT8=
EXTT9=
EXTT10=
EXTT11=
EXTT12=
EXTT13=
EXTT14=
EXTT15=
EXTT16=
PLAYORDER=
